<?xml version="1.0" encoding="UTF-8"?>
<svg width="1024px" height="1024px" viewBox="0 0 1024 1024" version="1.1" xmlns="http://www.w3.org/2000/svg" xmlns:xlink="http://www.w3.org/1999/xlink">
    <title>3 - Layer</title>
    <defs>
        <path d="M299.437469,900 C317.812629,900 325.250322,890.890864 329.624592,875.048972 L358.499973,776.036907 L666.499848,776.036907 L695.375228,875.048972 C700.187643,890.890864 708.499831,900 725.562352,900 C745.6874,900 756.18762,889.306691 756.18762,873.464718 C756.18762,870.296372 755.749476,866.335899 754.437733,862.375427 L700.187643,678.609096 L714.624885,678.609096 C740.874986,678.609096 760.124642,663.954827 760.124642,643.360822 C760.124642,620.786094 743.062121,606.924277 716.81202,606.924277 L326.562066,606.924277 C304.68713,606.924277 291.12528,595.834823 291.12528,577.220731 L291.12528,494.050638 L338.374925,494.050638 L338.374925,513.060551 C338.374925,549.101276 357.624581,566.131277 398.312821,566.131277 L631.937558,566.131277 C672.624902,566.131277 691.874558,549.101276 691.874558,513.060551 L691.874558,494.050638 L809.999566,494.050638 C831.437253,494.050638 845,483.357004 845,466.722823 C845,449.692823 831.874501,439 811.749453,439 L211.062336,439 C192.249928,439 180,450.089454 180,466.722823 C180,483.357004 193.125319,494.050638 213.250367,494.050638 L230.312888,494.050638 L230.312888,615.241367 C230.312888,654.450276 258.312877,678.609096 301.624604,678.609096 L324.812178,678.609096 L270.562088,862.375427 C270.12484,865.939836 269.250345,869.504245 269.250345,873.860782 C269.250345,888.514564 277.562533,900 299.437469,900 Z M375,721 L386.803916,679 L637.758238,679 L650,721 L375,721 Z M398.042705,397 L632.956398,397 C673.715498,397 693,380.010253 693,344.45041 L693,255.945284 C693,219.989747 673.715498,203 632.956398,203 L398.042705,203 C357.283605,203 338,219.989747 338,255.945284 L338,344.45041 C338,380.010253 357.283605,397 398.042705,397 Z" id="path-1"></path>
        <filter x="-0.8%" y="-0.5%" width="101.6%" height="101.5%" filterUnits="objectBoundingBox" id="filter-2">
            <feGaussianBlur stdDeviation="0" in="SourceGraphic"></feGaussianBlur>
        </filter>
        <filter x="-1.3%" y="-0.9%" width="102.5%" height="102.4%" filterUnits="objectBoundingBox" id="filter-3">
            <feMorphology radius="1.345" operator="dilate" in="SourceAlpha" result="shadowSpreadOuter1"></feMorphology>
            <feOffset dx="0" dy="2" in="shadowSpreadOuter1" result="shadowOffsetOuter1"></feOffset>
            <feGaussianBlur stdDeviation="2" in="shadowOffsetOuter1" result="shadowBlurOuter1"></feGaussianBlur>
            <feComposite in="shadowBlurOuter1" in2="SourceAlpha" operator="out" result="shadowBlurOuter1"></feComposite>
            <feColorMatrix values="0 0 0 0 0   0 0 0 0 0   0 0 0 0 0  0 0 0 0.786877185 0" type="matrix" in="shadowBlurOuter1"></feColorMatrix>
        </filter>
    </defs>
    <g id="Template---App-Icons" stroke="none" stroke-width="1" fill="none" fill-rule="evenodd">
        <g id="Shape" filter="url(#filter-2)">
            <use fill="black" fill-opacity="1" filter="url(#filter-3)" xlink:href="#path-1"></use>
            <path stroke="#000000" stroke-width="1.345" d="M811.749453,438.3275 C822.034862,438.3275 830.513808,441.090614 836.416627,446.012122 C842.320806,450.934763 845.6725,458.018691 845.6725,466.722823 C845.6725,475.276547 842.174576,482.296763 835.924376,487.176825 C829.756639,491.992502 820.881283,494.723138 809.999566,494.723138 L692.547058,494.723138 L692.547058,513.060551 C692.547058,531.320645 687.633342,544.739262 677.612603,553.612044 C667.616733,562.462805 652.496712,566.803777 631.937558,566.803777 L398.312821,566.803777 C377.753255,566.803777 362.633029,562.462821 352.637048,553.612094 C342.616159,544.739312 337.702425,531.320679 337.702425,513.060551 L337.702425,494.723138 L291.79778,494.723138 L291.79778,577.220731 C291.79778,586.267611 295.066206,593.502981 301.003512,598.479703 C307.028881,603.53024 315.773038,606.251777 326.562066,606.251777 L716.81202,606.251777 C730.196403,606.251777 741.213968,609.826417 748.869437,616.266545 C756.483409,622.671764 760.797142,631.91391 760.797142,643.360822 C760.797142,653.838259 755.923584,662.814841 747.706912,669.180226 C739.506394,675.533098 727.961191,679.281596 714.624885,679.281596 L701.087365,679.281596 L755.07961,862.174504 C756.413659,866.206985 756.86012,870.2387 756.86012,873.464718 C756.86012,881.792817 754.015939,888.723105 748.488911,893.512002 C743.253217,898.048472 735.584565,900.6725 725.562352,900.6725 C717.207843,900.6725 710.91328,898.520074 706.073966,894.520161 C700.827432,890.183663 697.286257,883.653531 694.729623,875.237253 L665.995458,776.709407 L359.004363,776.709407 L330.272834,875.227965 C327.92489,883.7313 324.688137,890.31183 319.439048,894.65044 C314.706349,898.56223 308.330958,900.6725 299.437469,900.6725 C288.977756,900.6725 281.573413,898.070165 276.643705,893.8015 C271.014991,888.927562 268.577845,881.862078 268.577845,873.860782 C268.577845,870.78942 269.004703,868.106508 269.414937,865.541887 C269.593485,864.425672 269.768537,863.332321 269.901302,862.238556 L323.912456,679.281596 L301.624604,679.281596 C279.674925,679.281596 261.635085,673.11053 249.107463,661.97846 C236.667482,650.924269 229.640388,634.972269 229.640388,615.241367 L229.640388,494.723138 L213.250367,494.723138 C202.989904,494.723138 194.527067,491.973302 188.626716,487.123921 C182.69397,482.247915 179.3275,475.248102 179.3275,466.722823 C179.3275,458.174981 182.493532,451.062196 188.06679,446.08812 C193.586616,441.16173 201.486066,438.3275 211.062336,438.3275 L811.749453,438.3275 Z M637.253768,679.6725 L387.313468,679.6725 L375.887558,720.3275 L649.103502,720.3275 L637.253768,679.6725 Z M632.956398,202.3275 C653.550982,202.3275 668.697409,206.658079 678.710733,215.487634 C688.749818,224.339905 693.6725,237.727435 693.6725,255.945284 L693.6725,344.45041 C693.6725,362.486343 688.741006,375.783471 678.682336,384.586723 C668.669126,393.350189 653.531698,397.6725 632.956398,397.6725 L398.042705,397.6725 C377.467476,397.6725 362.330309,393.350219 352.317322,384.586817 C342.258805,375.783567 337.3275,362.486409 337.3275,344.45041 L337.3275,255.945284 C337.3275,237.727368 342.249993,224.339808 352.288926,215.487539 C362.302026,206.658049 377.448192,202.3275 398.042705,202.3275 Z" fill="#FFFFFF" fill-rule="evenodd"></path>
        </g>
    </g>
</svg>